<?xml version="1.0" encoding="utf-8"?>
<!-- Generator: Adobe Illustrator 19.0.0, SVG Export Plug-In . SVG Version: 6.00 Build 0)  -->
<svg version="1.1" id="图层_1" xmlns="http://www.w3.org/2000/svg" xmlns:xlink="http://www.w3.org/1999/xlink" x="0px" y="0px"
	 viewBox="0 0 114 25" style="enable-background:new 0 0 114 25;" xml:space="preserve">
<style type="text/css">
	.st0{fill:#FFFFFF;}
	.st1{enable-background:new    ;}
</style>
<path id="XMLID_53_" class="st0" d="M16.5,17.7c-2.9,4-8.4,4.9-12.4,2c-0.9-0.6-1.6-1.4-2.2-2.2l0,0c-0.2-0.4-0.2-0.9,0.1-1.3
	c0.4-0.5,1.1-0.6,1.6-0.3c0.1,0.1,0.2,0.2,0.3,0.3l0,0c0.5,0.7,1.1,1.4,1.9,2c3.5,2.5,8.4,1.7,10.9-1.8c0.8-1.2,1.3-2.5,1.4-3.8
	C18.2,14.4,17.6,16.2,16.5,17.7z"/>
<path id="XMLID_52_" class="st0" d="M10.3,16.8c1.2,0.7,2.6,1.1,3.9,1c-1.7,0.1-3.6-0.2-5.2-1.2c-4.2-2.3-5.6-7.8-3.2-12
	c0.5-0.9,1.2-1.7,2-2.4l0,0C8.2,2,8.7,1.9,9.1,2.1c0.6,0.3,0.7,1,0.4,1.6c0,0.1-0.2,0.2-0.3,0.3l0,0C8.6,4.6,7.9,5.3,7.5,6.2
	C5.3,9.9,6.6,14.7,10.3,16.8z"/>
<path id="XMLID_51_" class="st0" d="M24,8.3c-0.3,0.6-1,0.7-1.6,0.4c-0.1-0.1-0.2-0.2-0.3-0.3l0,0c-0.6-0.7-1.3-1.3-2.1-1.8
	c-3.7-2.2-8.5-0.9-10.7,2.9c-0.7,1.2-1.1,2.6-1.1,4c-0.1-1.7,0.2-3.6,1.2-5.2C11.9,4,17.3,2.6,21.6,5c0.9,0.5,1.7,1.2,2.4,2l0,0
	C24.2,7.4,24.2,7.9,24,8.3z"/>
<g id="XMLID_26_" class="st1">
	<path id="XMLID_50_" class="st0" d="M27.2,20.9c-0.6,0.2-1.2,0.4-2,0.4c-0.7,0-1.3-0.1-1.9-0.3c-0.6-0.2-1.1-0.5-1.5-0.9
		s-0.7-0.9-1-1.5c-0.2-0.6-0.4-1.2-0.4-1.9c0-0.7,0.1-1.3,0.4-1.9c0.2-0.6,0.6-1.1,1-1.4c0.4-0.4,0.9-0.7,1.5-0.9s1.2-0.3,1.9-0.3
		c0.6,0,1.2,0.1,1.8,0.3c0.6,0.2,1.1,0.5,1.4,0.9L27,14.8c-0.2-0.3-0.4-0.5-0.8-0.6c-0.3-0.1-0.6-0.2-1-0.2s-0.7,0.1-1,0.2
		c-0.3,0.1-0.6,0.3-0.8,0.6c-0.2,0.2-0.4,0.5-0.5,0.8s-0.2,0.7-0.2,1.1s0.1,0.7,0.2,1.1c0.1,0.3,0.3,0.6,0.5,0.8
		c0.2,0.2,0.5,0.4,0.8,0.6c0.3,0.1,0.6,0.2,1,0.2s0.8-0.1,1.1-0.2c0.3-0.2,0.6-0.4,0.7-0.6l1.5,1.4C28.3,20.3,27.8,20.7,27.2,20.9z"
		/>
	<path id="XMLID_47_" class="st0" d="M35.3,21.1l-0.7-1.7h-3.4l-0.6,1.7h-2.3l3.6-8.7h2l3.6,8.7H35.3z M33,14.7l-1.1,3h2.2L33,14.7z
		"/>
	<path id="XMLID_44_" class="st0" d="M43,21.1l-1.9-3.5h-0.7v3.5h-2.1v-8.7h3.3c0.4,0,0.8,0,1.2,0.1s0.7,0.2,1.1,0.4
		c0.3,0.2,0.6,0.5,0.7,0.8c0.2,0.3,0.3,0.7,0.3,1.2c0,0.6-0.2,1.1-0.5,1.5c-0.3,0.4-0.8,0.7-1.3,0.9l2.3,3.7L43,21.1L43,21.1z
		 M42.9,15.1c0-0.2,0-0.4-0.1-0.5s-0.2-0.2-0.3-0.3s-0.3-0.1-0.5-0.1s-0.3,0-0.5,0h-1.1v2h1c0.2,0,0.4,0,0.5,0
		c0.2,0,0.3-0.1,0.5-0.2c0.1-0.1,0.3-0.2,0.4-0.3C42.9,15.5,42.9,15.3,42.9,15.1z"/>
	<path id="XMLID_42_" class="st0" d="M46.5,21.1v-8.7h5.9v1.8h-3.8v1.6h3.6v1.7h-3.6v1.8h4.1v1.8H46.5L46.5,21.1z"/>
	<path id="XMLID_41_" class="st0" d="M54,21.1v-8.7h5.9v1.8H56v1.6h3.6v1.7H56v1.8h4.1v1.8H54L54,21.1z"/>
	<path id="XMLID_37_" class="st0" d="M66.1,21.1l-1.9-3.5h-0.7v3.5h-2.1v-8.7h3.3c0.4,0,0.8,0,1.2,0.1c0.4,0.1,0.7,0.2,1.1,0.4
		c0.3,0.2,0.6,0.5,0.7,0.8c0.2,0.3,0.3,0.7,0.3,1.2c0,0.6-0.2,1.1-0.5,1.5c-0.3,0.4-0.8,0.7-1.3,0.9l2.3,3.7L66.1,21.1L66.1,21.1
		L66.1,21.1z M66,15.1c0-0.2,0-0.4-0.1-0.5s-0.2-0.2-0.3-0.3c-0.1-0.1-0.3-0.1-0.5-0.1s-0.3,0-0.5,0h-1.1v2h1c0.2,0,0.4,0,0.5,0
		c0.2,0,0.3-0.1,0.5-0.2c0.1-0.1,0.3-0.2,0.4-0.3C66,15.5,66,15.3,66,15.1z"/>
	<path id="XMLID_36_" class="st0" d="M78.9,20.9c-0.6,0.2-1.2,0.4-2,0.4c-0.7,0-1.3-0.1-1.9-0.3c-0.6-0.2-1.1-0.5-1.5-0.9
		s-0.7-0.9-1-1.5c-0.2-0.6-0.4-1.2-0.4-1.9c0-0.7,0.1-1.3,0.4-1.9c0.2-0.6,0.6-1.1,1-1.4c0.4-0.4,0.9-0.7,1.5-0.9s1.2-0.3,1.9-0.3
		c0.6,0,1.2,0.1,1.8,0.3c0.6,0.2,1.1,0.5,1.4,0.9l-1.4,1.4c-0.2-0.3-0.4-0.5-0.8-0.6c-0.3-0.1-0.6-0.2-1-0.2s-0.7,0.1-1,0.2
		c-0.3,0.1-0.6,0.3-0.8,0.6c-0.2,0.2-0.4,0.5-0.5,0.8s-0.2,0.7-0.2,1.1s0.1,0.7,0.2,1.1c0.1,0.3,0.3,0.6,0.5,0.8
		c0.2,0.2,0.5,0.4,0.8,0.6c0.3,0.1,0.6,0.2,1,0.2s0.8-0.1,1.1-0.2c0.3-0.2,0.6-0.4,0.7-0.6l1.5,1.4C80,20.3,79.5,20.7,78.9,20.9z"/>
	<path id="XMLID_34_" class="st0" d="M86.7,21.1v-3.6h-3.4v3.6h-2.1v-8.7h2.1v3.3h3.4v-3.3h2.1v8.7H86.7z"/>
	<path id="XMLID_33_" class="st0" d="M90.6,21.1v-8.7h2.1v8.7H90.6z"/>
	<path id="XMLID_32_" class="st0" d="M100.1,21.1l-3.5-5.7l0,0l0.1,5.7h-2v-8.7h2.4l3.5,5.7l0,0l-0.1-5.7h2v8.7
		C102.5,21.1,100.1,21.1,100.1,21.1z"/>
	<path id="XMLID_29_" class="st0" d="M110.1,21.1l-0.7-1.7H106l-0.6,1.7h-2.3l3.7-8.7h2l3.6,8.7H110.1z M107.8,14.7l-1.1,3h2.2
		L107.8,14.7z"/>
</g>
</svg>
